HIERARCHY
ROOT hip
{
  OFFSET 0 0 0
  CHANNELS 6 Xposition Yposition Zposition Zrotation Yrotation Xrotation
  JOINT abdomen
  {
    OFFSET 0 20.6881 -0.73152
    CHANNELS 3 Zrotation Xrotation Yrotation
    JOINT chest
    {
      OFFSET 0 11.7043 -0.48768
      CHANNELS 3 Zrotation Xrotation Yrotation
      JOINT neck
      {
        OFFSET 0 22.1894 -2.19456
        CHANNELS 3 Zrotation Xrotation Yrotation
        JOINT head
        {
          OFFSET -0.24384 7.07133 1.2192
          CHANNELS 3 Zrotation Xrotation Yrotation
          JOINT leftEye
          {
            OFFSET 4.14528 8.04674 8.04672
            CHANNELS 3 Zrotation Xrotation Yrotation
            End Site
            {
              OFFSET 1 0 0
            }
          }
          JOINT rightEye
          {
            OFFSET -3.6576 8.04674 8.04672
            CHANNELS 3 Zrotation Xrotation Yrotation
            End Site
            {
              OFFSET 1 0 0
            }
          }
        }
      }
      JOINT rCollar
      {
        OFFSET -2.68224 19.2634 -4.8768
        CHANNELS 3 Zrotation Xrotation Yrotation
        JOINT rShldr
        {
          OFFSET -8.77824 -1.95073 1.46304
          CHANNELS 3 Zrotation Xrotation Yrotation
          JOINT rForeArm
          {
            OFFSET -28.1742 -1.7115 0.48768
            CHANNELS 3 Zrotation Xrotation Yrotation
            JOINT rHand
            {
              OFFSET -22.5879 0.773209 7.07136
              CHANNELS 3 Zrotation Xrotation Yrotation
              JOINT rThumb1
              {
                OFFSET -1.2192 -0.487915 3.41376
                CHANNELS 3 Zrotation Xrotation Yrotation
                JOINT rThumb2
                {
                  OFFSET -3.37035 -0.52449 3.41376
                  CHANNELS 3 Zrotation Xrotation Yrotation
                  End Site
                  {
                    OFFSET -1.78271 -1.18214 1.43049
                  }
                }
              }
              JOINT rIndex1
              {
                OFFSET -7.75947 0.938293 5.60832
                CHANNELS 3 Zrotation Xrotation Yrotation
                JOINT rIndex2
                {
                  OFFSET -2.54057 -0.884171 1.56538
                  CHANNELS 3 Zrotation Xrotation Yrotation
                  End Site
                  {
                    OFFSET -1.62519 -0.234802 1.16502
                  }
                }
              }
              JOINT rMid1
              {
                OFFSET -8.24714 1.18213 3.41376
                CHANNELS 3 Zrotation Xrotation Yrotation
                JOINT rMid2
                {
                  OFFSET -3.10165 -0.590103 1.0647
                  CHANNELS 3 Zrotation Xrotation Yrotation
                  End Site
                  {
                    OFFSET -2.48547 -0.328903 0.83742
                  }
                }
              }
              JOINT rRing1
              {
                OFFSET -8.82822 0.546677 1.51678
                CHANNELS 3 Zrotation Xrotation Yrotation
                JOINT rRing2
                {
                  OFFSET -2.60934 -0.819778 -0.0198488
                  CHANNELS 3 Zrotation Xrotation Yrotation
                  End Site
                  {
                    OFFSET -2.33842 -0.294052 0.168128
                  }
                }
              }
              JOINT rPinky1
              {
                OFFSET -8.27202 -0.0477905 -0.4584
                CHANNELS 3 Zrotation Xrotation Yrotation
                JOINT rPinky2
                {
                  OFFSET -1.82734 -0.647385 -0.700984
                  CHANNELS 3 Zrotation Xrotation Yrotation
                  End Site
                  {
                    OFFSET -1.69225 -0.51767 -0.607171
                  }
                }
              }
            }
          }
        }
      }
      JOINT lCollar
      {
        OFFSET 2.68224 19.2634 -4.8768
        CHANNELS 3 Zrotation Xrotation Yrotation
        JOINT lShldr
        {
          OFFSET 8.77824 -1.95073 1.46304
          CHANNELS 3 Zrotation Xrotation Yrotation
          JOINT lForeArm
          {
            OFFSET 28.1742 -1.7115 0.48768
            CHANNELS 3 Zrotation Xrotation Yrotation
            JOINT lHand
            {
              OFFSET 22.5879 0.773209 7.07136
              CHANNELS 3 Zrotation Xrotation Yrotation
              JOINT lThumb1
              {
                OFFSET 1.2192 -0.487915 3.41376
                CHANNELS 3 Zrotation Xrotation Yrotation
                JOINT lThumb2
                {
                  OFFSET 3.37035 -0.52449 3.41376
                  CHANNELS 3 Zrotation Xrotation Yrotation
                  End Site
                  {
                    OFFSET 1.78271 -1.18214 1.43049
                  }
                }
              }
              JOINT lIndex1
              {
                OFFSET 7.75947 0.938293 5.60832
                CHANNELS 3 Zrotation Xrotation Yrotation
                JOINT lIndex2
                {
                  OFFSET 2.54057 -0.884171 1.56538
                  CHANNELS 3 Zrotation Xrotation Yrotation
                  End Site
                  {
                    OFFSET 1.62519 -0.234802 1.16502
                  }
                }
              }
              JOINT lMid1
              {
                OFFSET 8.24714 1.18213 3.41376
                CHANNELS 3 Zrotation Xrotation Yrotation
                JOINT lMid2
                {
                  OFFSET 3.10165 -0.590103 1.0647
                  CHANNELS 3 Zrotation Xrotation Yrotation
                  End Site
                  {
                    OFFSET 2.48547 -0.328903 0.83742
                  }
                }
              }
              JOINT lRing1
              {
                OFFSET 8.82822 0.546677 1.51678
                CHANNELS 3 Zrotation Xrotation Yrotation
                JOINT lRing2
                {
                  OFFSET 2.60934 -0.819778 -0.0198488
                  CHANNELS 3 Zrotation Xrotation Yrotation
                  End Site
                  {
                    OFFSET 2.33842 -0.294052 0.168128
                  }
                }
              }
              JOINT lPinky1
              {
                OFFSET 8.27202 -0.0477905 -0.4584
                CHANNELS 3 Zrotation Xrotation Yrotation
                JOINT lPinky2
                {
                  OFFSET 1.82734 -0.647385 -0.700984
                  CHANNELS 3 Zrotation Xrotation Yrotation
                  End Site
                  {
                    OFFSET 1.69225 -0.51767 -0.607171
                  }
                }
              }
            }
          }
        }
      }
    }
  }
  JOINT rButtock
  {
    OFFSET -8.77824 4.35084 1.2192
    CHANNELS 3 Zrotation Xrotation Yrotation
    JOINT rThigh
    {
      OFFSET 0 -1.70687 -2.19456
      CHANNELS 3 Zrotation Xrotation Yrotation
      JOINT rShin
      {
        OFFSET 0 -36.8199 0.73152
        CHANNELS 3 Zrotation Xrotation Yrotation
        JOINT rFoot
        {
          OFFSET 0.73152 -45.1104 -5.12064
          CHANNELS 3 Zrotation Xrotation Yrotation
          End Site
          {
            OFFSET -1.1221 -3.69964 12.103
          }
        }
      }
    }
  }
  JOINT lButtock
  {
    OFFSET 8.77824 4.35084 1.2192
    CHANNELS 3 Zrotation Xrotation Yrotation
    JOINT lThigh
    {
      OFFSET 0 -1.70687 -2.19456
      CHANNELS 3 Zrotation Xrotation Yrotation
      JOINT lShin
      {
        OFFSET 0 -36.8199 0.73152
        CHANNELS 3 Zrotation Xrotation Yrotation
        JOINT lFoot
        {
          OFFSET -0.73152 -45.1104 -5.12064
          CHANNELS 3 Zrotation Xrotation Yrotation
          End Site
          {
            OFFSET 1.1221 -3.69964 12.103
          }
        }
      }
    }
  }
}
MOTION
Frames:	5
Frame Time:	0.03333
0.2674099989235401 66.87909960746765 -1.9269999116659164 1.0599586963653564 1.9326738119125366 5.557056903839111 -5.711453437805176 22.109195709228516 3.791170597076416 2.868744134902954 -11.803900718688965 1.1421738862991333 -4.857151508331299 16.874399185180664 -3.471242666244507 9.362893104553223 -41.47279739379883 -3.6748950481414795 -0.0 0.0 -0.0 -0.0 0.0 -0.0 -0.0 0.0 -0.0 39.39946365356445 16.48952865600586 43.82008361816406 -23.881990432739258 -18.878211975097656 49.238101959228516 -0.9928545951843262 27.08169937133789 4.120911598205566 -0.0 0.0 -0.0 -0.0 0.0 -0.0 -0.0 0.0 -0.0 7.730876445770264 5.474894046783447 0.41732466220855713 -0.0 0.0 -0.0 2.9054994583129883 0.9650753736495972 0.10300876200199127 -0.0 0.0 -0.0 10.278595924377441 0.7317469120025635 0.026285571977496147 -0.0 0.0 -0.0 2.221662998199463 -0.7335850596427917 -0.20831838250160217 -0.0 0.0 -0.0 -10.436097145080566 46.25290298461914 -86.131591796875 28.43049430847168 -36.06430435180664 -77.1170883178711 20.621150970458984 -73.10969543457031 27.571643829345703 -0.0 0.0 -0.0 -0.0 0.0 -0.0 -0.0 0.0 -0.0 -7.730876445770264 5.474894046783447 -0.41732466220855713 -0.0 0.0 -0.0 -2.9054994583129883 0.9650753736495972 -0.10300876200199127 -0.0 0.0 -0.0 -10.278595924377441 0.7317469120025635 -0.026285571977496147 -0.0 0.0 -0.0 -2.221662998199463 -0.7335850596427917 0.20831838250160217 -0.0 0.0 -0.0 -22.987279891967773 -68.87330627441406 -28.145219802856445 -0.7171788811683655 51.96949768066406 0.8614382147789001 -1.550377607345581 -4.23369026184082 -6.47029972076416 -0.0 0.0 -0.0 1.151364803314209 -50.79060363769531 9.669503211975098 3.7759358882904053 77.85956573486328 -4.64643669128418 6.337888240814209 0.8803091645240784 35.35629653930664
0.5732199875637889 66.37570261955261 -3.8409998640418053 1.0558258295059204 -1.056654930114746 5.471011161804199 -7.526337146759033 22.653104782104492 4.444804668426514 3.3907470703125 -12.773892402648926 1.3259766101837158 -4.891280174255371 16.699594497680664 -2.5904300212860107 9.626510620117188 -41.11790084838867 -1.775511622428894 -0.0 0.0 -0.0 -0.0 0.0 -0.0 -0.0 0.0 -0.0 36.6212043762207 20.69878387451172 46.657405853271484 -23.73358726501465 -18.605405807495117 48.792789459228516 -0.8046072125434875 24.60487937927246 3.688293933868408 -0.0 0.0 -0.0 -0.0 0.0 -0.0 -0.0 0.0 -0.0 7.730876445770264 5.474894046783447 0.41732466220855713 -0.0 0.0 -0.0 2.9054994583129883 0.9650753736495972 0.10300876200199127 -0.0 0.0 -0.0 10.278595924377441 0.7317469120025635 0.026285571977496147 -0.0 0.0 -0.0 2.221662998199463 -0.7335850596427917 -0.20831838250160217 -0.0 0.0 -0.0 -4.168157577514648 40.37668991088867 -94.189697265625 28.327394485473633 -38.5525016784668 -81.148193359375 13.749872207641602 -67.95120239257812 20.2875919342041 -0.0 0.0 -0.0 -0.0 0.0 -0.0 -0.0 0.0 -0.0 -7.730876445770264 5.474894046783447 -0.41732466220855713 -0.0 0.0 -0.0 -2.9054994583129883 0.9650753736495972 -0.10300876200199127 -0.0 0.0 -0.0 -10.278595924377441 0.7317469120025635 -0.026285571977496147 -0.0 0.0 -0.0 -2.221662998199463 -0.7335850596427917 0.20831838250160217 -0.0 0.0 -0.0 -26.665103912353516 -70.36318969726562 -34.8555908203125 -1.115783929824829 60.39371109008789 1.3921716213226318 -1.7491440773010254 -3.737495183944702 -7.341529846191406 -0.0 0.0 -0.0 4.997419834136963 -52.788692474365234 16.036027908325195 4.296097755432129 79.17093658447266 -5.234208106994629 6.553737163543701 0.5798410177230835 35.44759750366211
0.817819987423718 65.69309830665588 -5.800999887287617 1.347970962524414 -4.163483619689941 5.628961086273193 -9.499601364135742 23.108604431152344 5.047769069671631 3.888066291809082 -13.878509521484375 1.485817551612854 -4.989278316497803 16.540395736694336 -1.7427226305007935 9.917595863342285 -40.699100494384766 0.050633881241083145 -0.0 0.0 -0.0 -0.0 0.0 -0.0 -0.0 0.0 -0.0 33.13850021362305 25.02470588684082 50.081298828125 -23.708194732666016 -18.56191635131836 48.69929122924805 -0.6028749346733093 21.503395080566406 3.174137830734253 -0.0 0.0 -0.0 -0.0 0.0 -0.0 -0.0 0.0 -0.0 7.730876445770264 5.474894046783447 0.41732466220855713 -0.0 0.0 -0.0 2.9054994583129883 0.9650753736495972 0.10300876200199127 -0.0 0.0 -0.0 10.278595924377441 0.7317469120025635 0.026285571977496147 -0.0 0.0 -0.0 2.221662998199463 -0.7335850596427917 -0.20831838250160217 -0.0 0.0 -0.0 1.0947325229644775 33.37940216064453 -101.55398559570312 27.88990020751953 -40.95940017700195 -85.65879821777344 8.373865127563477 -60.45092010498047 14.343164443969727 -0.0 0.0 -0.0 -0.0 0.0 -0.0 -0.0 0.0 -0.0 -7.730876445770264 5.474894046783447 -0.41732466220855713 -0.0 0.0 -0.0 -2.9054994583129883 0.9650753736495972 -0.10300876200199127 -0.0 0.0 -0.0 -10.278595924377441 0.7317469120025635 -0.026285571977496147 -0.0 0.0 -0.0 -2.221662998199463 -0.7335850596427917 0.20831838250160217 -0.0 0.0 -0.0 -30.600923538208008 -71.6713638305664 -40.075408935546875 -2.0362579822540283 69.76558685302734 2.4252703189849854 -1.9061315059661865 -3.9626808166503906 -7.424283504486084 -0.0 0.0 -0.0 9.273172378540039 -54.63308334350586 22.87047576904297 5.037659645080566 80.52874755859375 -6.010184288024902 6.804183483123779 0.22828783094882965 35.4911994934082
1.0633699828758836 65.0285005569458 -7.79699981212616 1.1790517568588257 -7.1263108253479 5.811967372894287 -10.419921875 23.144498825073242 5.66666316986084 3.495891809463501 -14.169601440429688 1.578151822090149 -4.967836856842041 16.30778694152832 -0.9778556227684021 10.541625022888184 -40.66099166870117 1.870324730873108 -0.0 0.0 -0.0 -0.0 0.0 -0.0 -0.0 0.0 -0.0 29.647695541381836 28.503204345703125 54.23699951171875 -23.732009887695312 -18.60478973388672 48.7732048034668 -0.48262396454811096 19.353227615356445 2.8298633098602295 -0.0 0.0 -0.0 -0.0 0.0 -0.0 -0.0 0.0 -0.0 7.730876445770264 5.474894046783447 0.41732466220855713 -0.0 0.0 -0.0 2.9054994583129883 0.9650753736495972 0.10300876200199127 -0.0 0.0 -0.0 10.278595924377441 0.7317469120025635 0.026285571977496147 -0.0 0.0 -0.0 2.221662998199463 -0.7335850596427917 -0.20831838250160217 -0.0 0.0 -0.0 5.355280876159668 24.51200294494629 -108.23799133300781 27.325597763061523 -43.141990661621094 -89.70279693603516 4.799971580505371 -51.19576644897461 10.031949996948242 -0.0 0.0 -0.0 -0.0 0.0 -0.0 -0.0 0.0 -0.0 -7.730876445770264 5.474894046783447 -0.41732466220855713 -0.0 0.0 -0.0 -2.9054994583129883 0.9650753736495972 -0.10300876200199127 -0.0 0.0 -0.0 -10.278595924377441 0.7317469120025635 -0.026285571977496147 -0.0 0.0 -0.0 -2.221662998199463 -0.7335850596427917 0.20831838250160217 -0.0 0.0 -0.0 -32.82192611694336 -72.33421325683594 -43.011253356933594 -4.451622486114502 78.88590240478516 4.91530704498291 -2.0191619396209717 -5.293721675872803 -6.833136081695557 -0.0 0.0 -0.0 14.444534301757812 -56.10709762573242 30.031110763549805 5.886662483215332 81.62081146240234 -6.830342769622803 7.27480411529541 -0.2421533316373825 36.06729507446289
1.3198999920859933 64.46400284767151 -9.90699976682663 0.7040373086929321 -9.600883483886719 5.999014854431152 -10.90521240234375 22.996990203857422 6.126227378845215 2.954709768295288 -14.160798072814941 1.6175132989883423 -4.942081928253174 16.004886627197266 -0.27822399139404297 11.147422790527344 -40.58369064331055 3.5545830726623535 -0.0 0.0 -0.0 -0.0 0.0 -0.0 -0.0 0.0 -0.0 25.479890823364258 31.39340591430664 59.158504486083984 -23.75910186767578 -18.65399932861328 48.85640335083008 -0.3883943557739258 17.444488525390625 2.5311927795410156 -0.0 0.0 -0.0 -0.0 0.0 -0.0 -0.0 0.0 -0.0 7.730876445770264 5.474894046783447 0.41732466220855713 -0.0 0.0 -0.0 2.9054994583129883 0.9650753736495972 0.10300876200199127 -0.0 0.0 -0.0 10.278595924377441 0.7317469120025635 0.026285571977496147 -0.0 0.0 -0.0 2.221662998199463 -0.7335850596427917 -0.20831838250160217 -0.0 0.0 -0.0 7.999351501464844 15.426497459411621 -112.2659912109375 26.67930030822754 -44.82280349731445 -93.09879302978516 2.573699712753296 -40.51983642578125 6.908147811889648 -0.0 0.0 -0.0 -0.0 0.0 -0.0 -0.0 0.0 -0.0 -7.730876445770264 5.474894046783447 -0.41732466220855713 -0.0 0.0 -0.0 -2.9054994583129883 0.9650753736495972 -0.10300876200199127 -0.0 0.0 -0.0 -10.278595924377441 0.7317469120025635 -0.026285571977496147 -0.0 0.0 -0.0 -2.221662998199463 -0.7335850596427917 0.20831838250160217 -0.0 0.0 -0.0 -33.95779037475586 -72.09783172607422 -44.084327697753906 -20.981128692626953 87.1795654296875 21.482013702392578 -2.0744550228118896 -6.345128059387207 -6.214443206787109 -0.0 0.0 -0.0 19.63640785217285 -57.247047424316406 36.53110122680664 6.647711277008057 82.41337585449219 -7.504347324371338 7.394276142120361 -0.2555922865867615 36.53559494018555
